<?xml version="1.0" encoding="UTF-8"?>
<svg width="17px" height="26px" viewBox="0 0 17 26" version="1.1" xmlns="http://www.w3.org/2000/svg" xmlns:xlink="http://www.w3.org/1999/xlink">
    <!-- Generator: Sketch 48.2 (47327) - http://www.bohemiancoding.com/sketch -->
    <title>Group 3</title>
    <desc>Created with Sketch.</desc>
    <defs></defs>
    <g id="åresaxen1" stroke="none" stroke-width="1" fill="none" fill-rule="evenodd" transform="translate(-465.000000, -789.000000)">
        <g id="Group-2" transform="translate(226.000000, 729.000000)">
            <g id="Group-3" transform="translate(233.000000, 58.000000)">
                <rect id="Rectangle-3" x="0" y="0" width="30" height="30"></rect>
                <path d="M13.9344168,27.6864637 C14.0517591,27.8805427 14.2669407,28 14.5,28 C14.7330593,28 14.9482409,27.8805427 15.0655832,27.6864637 C15.3896558,27.150003 23,14.4994393 23,10.198975 C23,5.67809466 19.1868642,2 14.5,2 C9.81313576,2 6,5.67809466 6,10.198975 C5.99967495,14.4994393 13.6103442,27.150003 13.9344168,27.6864637 Z M14.5,5.57870365 C17.2495793,5.57870365 19.4865583,7.73646066 19.4865583,10.3886645 C19.4865583,13.0408683 17.2495793,15.1986253 14.5,15.1986253 C11.7504207,15.1986253 9.51344168,13.0408683 9.51344168,10.3886645 C9.51344168,7.73646066 11.7504207,5.57870365 14.5,5.57870365 Z" id="Shape" fill="#000000" fill-rule="nonzero"></path>
            </g>
        </g>
    </g>
</svg>