<?xml version="1.0" encoding="UTF-8"?>
<svg width="38px" height="99px" viewBox="0 0 38 99" version="1.1" xmlns="http://www.w3.org/2000/svg" xmlns:xlink="http://www.w3.org/1999/xlink">
    <!-- Generator: Sketch 47.1 (45422) - http://www.bohemiancoding.com/sketch -->
    <title>ARESAXEN_logo_vit</title>
    <desc>Created with Sketch.</desc>
    <defs></defs>
    <g id="Page-1" stroke="none" stroke-width="1" fill="none" fill-rule="evenodd">
        <g id="ARESAXEN_logo_vit" transform="translate(1.000000, 3.000000)" stroke="#FFFFFE" stroke-width="5.884">
            <path d="M25.401,0.325 C25.401,0.325 13.985,5.255 7.182,18.775 C3.97,25.159 1.877,36.303 5.106,46.22 C8.4,56.339 12.659,65.593 0.234,71.243 M30.36,11.28 C30.36,11.28 15.138,18.314 15.715,35.784 C15.865,40.332 18.347,49.672 19.866,53.601 C24.594,65.823 13.322,78.911 5.337,82.544 M35.347,22.033 C35.347,22.033 22.864,28.001 29.783,45.298 C32.913,53.122 34.568,62.94 30.706,72.512 C28.275,78.534 16.868,90.327 10.324,93.325" id="Stroke-11"></path>
        </g>
    </g>
</svg>