<svg width="256" height="256" viewBox="0 0 256 256" fill="none" xmlns="http://www.w3.org/2000/svg">
<g id="fav2">
<mask id="mask0" mask-type="alpha" maskUnits="userSpaceOnUse" x="0" y="0" width="256" height="256">
<rect id="Rectangle 5" width="256" height="256" fill="#C4C4C4"/>
</mask>
<g mask="url(#mask0)">
<g id="Group">
<rect id="Rectangle" x="-56" width="198" height="256.235" fill="white" fill-opacity="0.01"/>
<g id="ARESAXEN_logo_vit">
<path id="Stroke 11" d="M19.1997 65.4009L13.2734 62.4756L13.2733 62.4758L19.1997 65.4009ZM14.6325 126.951L20.9282 124.941L20.928 124.94L14.6325 126.951ZM37.9719 103.546L44.5774 103.333L44.5774 103.332L37.9719 103.546ZM47.1041 143.504L40.9247 145.848L40.9252 145.849L47.1041 143.504ZM68.9216 124.883L62.7694 127.297L62.7694 127.297L68.9216 124.883ZM70.9522 185.915L77.0968 188.349L77.0972 188.347L70.9522 185.915ZM59.2815 24.0234C56.6187 17.9747 56.6162 17.9758 56.6137 17.9769C56.6127 17.9773 56.6101 17.9785 56.6081 17.9794C56.6042 17.9811 56.6 17.983 56.5953 17.985C56.586 17.9892 56.5751 17.994 56.5627 17.9996C56.538 18.0107 56.5071 18.0246 56.4703 18.0413C56.3967 18.0748 56.2993 18.1198 56.1791 18.1764C55.9389 18.2895 55.6076 18.4495 55.1941 18.6583C54.3672 19.0759 53.2099 19.6896 51.7927 20.5165C48.9605 22.169 45.076 24.6814 40.7112 28.1917C31.9854 35.2094 21.2711 46.273 13.2734 62.4756L25.1259 68.3261C32.0948 54.2077 41.4215 44.5826 48.9949 38.4918C52.7797 35.4479 56.1094 33.3011 58.4541 31.933C59.6253 31.2496 60.547 30.7627 61.1521 30.4571C61.4545 30.3044 61.6774 30.1972 61.8124 30.1337C61.8798 30.1019 61.9253 30.081 61.9476 30.0708C61.9588 30.0657 61.9642 30.0633 61.9637 30.0636C61.9634 30.0637 61.9617 30.0645 61.9585 30.0659C61.9568 30.0666 61.9549 30.0675 61.9525 30.0685C61.9513 30.069 61.9493 30.07 61.9487 30.0702C61.9465 30.0712 61.9443 30.0722 59.2815 24.0234ZM13.2733 62.4758C5.58416 78.0548 0.626168 104.821 8.33691 128.962L20.928 124.94C14.4312 104.6 18.6824 81.3814 25.126 68.3259L13.2733 62.4758ZM8.33677 128.962C10.2277 134.883 12.0631 140.099 13.4876 145.268C14.8937 150.369 15.7015 154.778 15.6336 158.653C15.5678 162.404 14.6852 165.552 12.7224 168.361C10.7163 171.233 7.23122 174.248 1.13461 177.074L6.69351 189.066C14.2644 185.556 19.8587 181.225 23.5573 175.932C27.2991 170.577 28.7465 164.743 28.8493 158.885C28.9499 153.15 27.765 147.324 26.2303 141.756C24.714 136.254 22.6606 130.366 20.9282 124.941L8.33677 128.962ZM70.1909 48.5918C67.3746 42.613 67.3716 42.6144 67.3685 42.6159C67.3673 42.6164 67.3641 42.618 67.3617 42.6191C67.3568 42.6214 67.3515 42.6239 67.3457 42.6267C67.334 42.6323 67.3202 42.6388 67.3044 42.6464C67.2729 42.6616 67.2332 42.6808 67.1858 42.704C67.0909 42.7506 66.9647 42.8134 66.8093 42.8927C66.4985 43.0514 66.0705 43.2766 65.5423 43.5703C64.4869 44.1573 63.026 45.0211 61.2985 46.1791C57.853 48.4885 53.2904 52.0056 48.7635 56.8786C39.6549 66.6834 30.6629 82.0437 31.3665 103.76L44.5774 103.332C44.0116 85.8695 51.1291 73.7524 58.4473 65.8749C62.1338 61.9066 65.864 59.0313 68.6579 57.1586C70.0501 56.2254 71.1955 55.5507 71.9666 55.1219C72.3516 54.9078 72.6418 54.7558 72.821 54.6643C72.9106 54.6185 72.9722 54.588 73.004 54.5724C73.0199 54.5646 73.0283 54.5606 73.0289 54.5603C73.0292 54.5601 73.0276 54.5609 73.024 54.5626C73.0222 54.5635 73.0199 54.5646 73.0171 54.5659C73.0157 54.5666 73.0133 54.5677 73.0126 54.568C73.01 54.5693 73.0073 54.5705 70.1909 48.5918ZM31.3665 103.76C31.5547 109.576 33.1442 117.917 34.9816 125.586C36.8409 133.346 39.117 141.081 40.9247 145.848L53.2835 141.161C51.7494 137.116 49.6245 129.972 47.8356 122.506C46.0248 114.948 44.7192 107.716 44.5774 103.333L31.3665 103.76ZM40.9252 145.849C45.1587 157.005 42.4209 169.025 35.9488 179.773C29.4379 190.586 19.7873 198.974 12.3596 202.419L17.921 214.409C28.0603 209.707 39.5925 199.345 47.2721 186.592C54.9906 173.774 59.4511 157.413 53.2831 141.159L40.9252 145.849ZM81.1624 72.7071C78.267 66.7662 78.2629 66.7682 78.2588 66.7702C78.2572 66.771 78.253 66.7731 78.2499 66.7746C78.2438 66.7776 78.2372 66.7808 78.2302 66.7842C78.2163 66.7911 78.2006 66.7989 78.1833 66.8076C78.1486 66.825 78.1072 66.846 78.0593 66.8706C77.9637 66.9198 77.8422 66.9837 77.6972 67.0627C77.4073 67.2205 77.0222 67.4392 76.5601 67.7222C75.6376 68.2873 74.3981 69.1151 72.9921 70.2347C70.1894 72.4666 66.6531 75.9166 63.6807 80.8247C57.5477 90.9519 54.482 106.177 62.7694 127.297L75.0738 122.469C68.1394 104.797 71.194 93.9346 74.9869 87.6717C76.9774 84.3848 79.3554 82.0642 81.2262 80.5744C82.1571 79.8331 82.9442 79.3121 83.464 78.9937C83.7231 78.835 83.9131 78.7283 84.0181 78.6711C84.0705 78.6426 84.1014 78.6266 84.1088 78.6228C84.1124 78.6209 84.1102 78.6221 84.1018 78.6263C84.0976 78.6284 84.0918 78.6313 84.0845 78.6349C84.0808 78.6367 84.0768 78.6387 84.0723 78.6409C84.0701 78.642 84.0664 78.6438 84.0653 78.6443C84.0616 78.6461 84.0577 78.648 81.1624 72.7071ZM62.7694 127.297C69.306 143.954 72.4664 164.131 64.8071 183.483L77.0972 188.347C86.4307 164.766 82.3091 140.906 75.0737 122.469L62.7694 127.297ZM64.8075 183.482C62.6345 188.969 55.8021 198.181 47.149 207.229C38.5292 216.242 29.3536 223.784 23.3152 226.604L28.9083 238.58C37.2667 234.677 47.8372 225.633 56.7014 216.365C65.5323 207.131 73.9216 196.367 77.0968 188.349L64.8075 183.482Z" fill="#2C2C2C"/>
</g>
</g>
</g>
</g>
</svg>
