<svg width="210" height="210" viewBox="0 0 210 210" fill="none" xmlns="http://www.w3.org/2000/svg">
<path fill-rule="evenodd" clip-rule="evenodd" d="M95.495 127.819L96.1582 129.583L97.9266 130.464C97.9266 130.464 99.1424 131.236 100.8 132.449C99.474 133.551 98.2582 134.874 97.0424 136.197C91.5161 142.37 91.8477 152.512 91.8477 152.512C93.5056 156.039 93.9477 160.118 92.5108 164.087C89.7477 171.803 81.2371 175.772 73.6108 173.016C65.874 170.26 61.895 161.772 64.6582 154.165C67.3108 146.779 75.2687 142.811 82.7845 145.016L83.8898 144.134C85.5391 142.818 87.0654 140.52 88.4227 138.476C88.8845 137.781 89.3268 137.115 89.7477 136.527C92.4003 132.559 94.0582 129.031 95.0529 126.386L95.495 127.819ZM75.8213 166.732C80.0213 168.276 84.6634 166.071 86.2108 161.882C87.6477 157.693 85.4371 153.063 81.3477 151.52C77.1477 149.976 72.5056 152.181 70.9582 156.37C69.4108 160.559 71.6213 165.189 75.8213 166.732Z" fill="#C5B5D1"/>
<path fill-rule="evenodd" clip-rule="evenodd" d="M127.215 145.016C134.841 142.701 143.241 147 145.563 154.937C147.773 162.102 144.015 170.039 137.052 172.905C129.205 175.992 120.473 172.023 117.599 164.197C116.163 160.228 116.494 156.039 118.263 152.622C118.263 152.622 118.594 142.48 113.068 136.307C107.541 130.134 100.689 125.945 100.689 125.945L68.6362 36.8738C68.3046 36.1021 68.7467 35.3305 69.4099 35.11C70.073 34.8895 70.7362 35.11 71.0678 35.7714L113.399 121.315C113.399 121.315 114.394 128.039 120.252 136.527C120.673 137.115 121.115 137.781 121.577 138.476C122.934 140.52 124.461 142.818 126.11 144.134L127.215 145.016ZM123.789 161.882C125.336 166.071 129.978 168.275 134.178 166.732C138.378 165.299 140.589 160.669 139.041 156.37C137.494 152.181 132.852 149.976 128.652 151.519C124.452 153.063 122.241 157.693 123.789 161.882Z" fill="#CBCBCB"/>
<path fill-rule="evenodd" clip-rule="evenodd" d="M107.873 119.22C107.541 120.874 105.994 121.866 104.336 121.535C102.678 121.205 101.683 119.661 102.015 118.008C102.346 116.354 103.894 115.362 105.552 115.693C107.209 116.134 108.204 117.677 107.873 119.22Z" fill="#270722"/>
<path d="M140.59 35.1101C139.927 34.8896 139.264 35.2203 138.933 35.7715L108.096 97.9447L114.727 111.283L141.364 36.8739C141.696 36.1022 141.254 35.3305 140.59 35.1101Z" fill="#C5B5D1"/>
</svg>
