<svg width="1034" height="192" viewBox="0 0 1034 192" fill="none" xmlns="http://www.w3.org/2000/svg">
<mask id="mask0" mask-type="alpha" maskUnits="userSpaceOnUse" x="0" y="0" width="97" height="150">
<path fill-rule="evenodd" clip-rule="evenodd" d="M48.0778 0H0V149.223H96.1556V0H48.0778V0Z" fill="white"/>
</mask>
<g mask="url(#mask0)">
<path fill-rule="evenodd" clip-rule="evenodd" d="M40.3392 15.5486C40.3392 19.714 43.8832 23.2407 48.0752 23.2407C52.2653 23.2407 55.6496 19.714 55.6496 15.5486C55.6496 11.3793 52.2653 8.01332 48.0752 8.01332C43.8832 8.01332 40.3392 11.3793 40.3392 15.5486ZM63.7065 15.5487C63.7065 24.2009 56.7763 31.2561 48.075 31.2561C39.3718 31.2561 32.282 24.2009 32.282 15.5487C32.282 7.05334 39.3718 0 48.075 0C56.6147 0 63.7065 7.05334 63.7065 15.5487ZM48.3701 66.4357L30.2923 108.527H66.0276L48.3701 66.4357ZM25.5283 119.398L12.7771 149.224H-0.116211L48.6505 39.1166L96.1562 149.224H83.1228L70.6518 119.398H25.5283V119.398Z" fill="black"/>
</g>
<path fill-rule="evenodd" clip-rule="evenodd" d="M144.63 92.7774H148.273C161.587 92.7774 175.039 90.2669 175.039 73.9594C175.039 56.6784 162.287 55.006 148.133 55.006H144.63V92.7774ZM144.63 149.223H132.859V44.1337H148.133C168.172 44.1337 186.811 49.4314 186.811 73.1252C186.811 89.2913 176.582 100.721 160.325 102.115L193.957 149.223H179.524L147.572 103.09H144.63V149.223V149.223Z" fill="black"/>
<path fill-rule="evenodd" clip-rule="evenodd" d="M239.632 44.1337H294.426V55.006H251.404V86.2253H293.165V97.0976H251.404V138.353H294.426V149.223H239.632V44.1337" fill="black"/>
<path fill-rule="evenodd" clip-rule="evenodd" d="M541.18 64.6221C536.977 57.3752 531.93 53.1943 522.962 53.1943C513.574 53.1943 505.445 59.8838 505.445 69.5018C505.445 78.5604 514.835 82.7433 521.982 85.9486L528.988 89.0146C542.722 95.0053 554.352 101.836 554.352 118.56C554.352 136.958 539.497 151.037 521.141 151.037C504.184 151.037 491.571 140.165 488.208 123.857L499.7 120.65C501.241 131.383 509.509 140.165 520.861 140.165C532.211 140.165 542.582 131.524 542.582 119.677C542.582 107.413 532.911 103.23 523.103 98.7701L516.657 95.9809C504.324 90.4063 493.675 84.135 493.675 69.0837C493.675 52.7762 507.547 42.324 523.243 42.324C535.013 42.324 544.964 48.3147 550.569 58.6295L541.18 64.6221" fill="black"/>
<path fill-rule="evenodd" clip-rule="evenodd" d="M632.679 66.4357L614.601 108.527H650.337L632.679 66.4357ZM609.838 119.398L597.085 149.224H584.193L632.96 39.1167L680.466 149.224H667.432L654.961 119.398H609.838V119.398Z" fill="black"/>
<path fill-rule="evenodd" clip-rule="evenodd" d="M708.199 44.1337H721.651L743.232 83.7168L764.813 44.1337H778.267L749.68 94.8678L780.929 149.223H767.475L743.232 106.017L718.989 149.223H705.537L736.787 94.8678L708.199 44.1337" fill="black"/>
<path fill-rule="evenodd" clip-rule="evenodd" d="M827.024 44.1337H881.816V55.006H838.797V86.2253H880.557V97.0976H838.797V138.353H881.816V149.223H827.024V44.1337" fill="black"/>
<path fill-rule="evenodd" clip-rule="evenodd" d="M938.981 39.676L1021.38 125.53V44.1337H1033.15V153.962L950.754 68.2455V149.223H938.981V39.676" fill="black"/>
<path d="M373.899 41.7007L368.8 39.1213L368.8 39.1215L373.899 41.7007ZM369.859 94.8233L375.289 93.046L375.289 93.0456L369.859 94.8233ZM390.505 74.6234L396.215 74.434L396.215 74.4337L390.505 74.6234ZM398.583 109.11L393.258 111.18L393.258 111.181L398.583 109.11ZM417.883 93.0386L412.582 95.1707L412.582 95.1708L417.883 93.0386ZM419.68 145.714L424.974 147.863L424.974 147.862L419.68 145.714ZM409.356 5.98877C407.101 0.738819 407.099 0.739714 407.097 0.740646C407.096 0.741005 407.094 0.741977 407.092 0.742698C407.089 0.744141 407.085 0.745734 407.081 0.747479C407.073 0.750968 407.063 0.755061 407.053 0.759761C407.031 0.769161 407.004 0.780992 406.972 0.795281C406.908 0.823857 406.822 0.862276 406.717 0.910762C406.506 1.00772 406.214 1.14502 405.85 1.32447C405.122 1.68326 404.101 2.2113 402.851 2.92321C400.352 4.34582 396.921 6.51034 393.065 9.53609C385.358 15.5835 375.88 25.1286 368.8 39.1213L378.997 44.2801C385.158 32.1033 393.408 23.7925 400.119 18.5263C403.472 15.8953 406.424 14.0386 408.504 12.8542C409.543 12.2626 410.362 11.8406 410.9 11.5753C411.17 11.4428 411.368 11.3495 411.489 11.2939C411.55 11.2661 411.591 11.2477 411.611 11.2386C411.622 11.234 411.627 11.2318 411.627 11.2318C411.627 11.2318 411.625 11.2324 411.623 11.2336C411.621 11.2341 411.62 11.2349 411.618 11.2357C411.617 11.2361 411.615 11.2369 411.614 11.2371C411.613 11.2379 411.611 11.2387 409.356 5.98877ZM368.8 39.1215C361.99 52.5831 357.594 75.7242 364.428 96.601L375.289 93.0456C369.555 75.5317 373.305 55.532 378.997 44.2799L368.8 39.1215ZM364.428 96.6007C366.103 101.716 367.724 106.212 368.984 110.67C370.226 115.069 370.937 118.859 370.877 122.182C370.819 125.39 370.048 128.086 368.316 130.504C366.539 132.984 363.443 135.6 358.022 138.052L362.731 148.464C369.401 145.448 374.337 141.723 377.607 137.158C380.922 132.529 382.211 127.473 382.302 122.387C382.392 117.417 381.339 112.372 379.981 107.563C378.638 102.812 376.82 97.7241 375.289 93.046L364.428 96.6007ZM419.006 27.1933C416.62 22.0017 416.618 22.0028 416.615 22.0041C416.614 22.0045 416.611 22.0058 416.609 22.0068C416.605 22.0087 416.6 22.0108 416.595 22.0132C416.585 22.0179 416.573 22.0234 416.559 22.0299C416.532 22.0427 416.497 22.0591 416.456 22.0789C416.373 22.1187 416.262 22.1724 416.126 22.2404C415.852 22.3765 415.476 22.5698 415.01 22.8223C414.081 23.3268 412.792 24.0701 411.268 25.0671C408.227 27.0552 404.197 30.0858 400.196 34.2877C392.149 42.7391 384.17 56.0161 384.794 74.813L396.215 74.4337C395.716 59.4157 401.988 48.9776 408.472 42.1678C411.737 38.739 415.043 36.2524 417.522 34.631C418.757 33.8232 419.774 33.2386 420.46 32.8665C420.803 32.6806 421.061 32.5485 421.222 32.4685C421.302 32.4286 421.357 32.4018 421.386 32.3879C421.401 32.381 421.409 32.3773 421.41 32.3768C421.41 32.3765 421.409 32.3771 421.406 32.3785C421.405 32.3792 421.403 32.3801 421.4 32.3811C421.399 32.3817 421.397 32.3826 421.397 32.3829C421.394 32.3839 421.392 32.385 419.006 27.1933ZM384.794 74.8128C384.961 79.8487 386.37 87.0596 387.996 93.6787C389.641 100.379 391.656 107.061 393.258 111.18L403.909 107.04C402.554 103.554 400.675 97.3942 399.094 90.9533C397.492 84.4311 396.34 78.2012 396.215 74.434L384.794 74.8128ZM393.258 111.181C396.982 120.755 394.584 131.082 388.861 140.355C383.107 149.678 374.562 156.935 367.952 159.927L372.663 170.338C381.593 166.297 391.787 157.372 398.586 146.356C405.416 135.29 409.386 121.122 403.908 107.039L393.258 111.181ZM428.712 48.0068C426.258 42.8467 426.255 42.8484 426.251 42.8501C426.25 42.8507 426.246 42.8525 426.244 42.8537C426.238 42.8562 426.233 42.8589 426.227 42.8618C426.215 42.8677 426.201 42.8742 426.186 42.8816C426.156 42.8963 426.12 42.9141 426.078 42.935C425.995 42.9769 425.889 43.0313 425.762 43.0988C425.508 43.2337 425.17 43.4211 424.763 43.6639C423.952 44.1486 422.86 44.8599 421.621 45.823C419.151 47.742 416.025 50.7154 413.393 54.9544C407.954 63.7182 405.237 76.9067 412.582 95.1707L423.184 90.9066C417.065 75.6904 419.762 66.363 423.103 60.981C424.862 58.1469 426.967 56.14 428.632 54.8468C429.459 54.2038 430.16 53.751 430.625 53.4732C430.857 53.3348 431.027 53.2412 431.123 53.1906C431.17 53.1653 431.199 53.1508 431.207 53.1469C431.211 53.145 431.209 53.1457 431.202 53.149C431.199 53.1507 431.194 53.153 431.188 53.156C431.185 53.1575 431.182 53.1591 431.178 53.1609C431.176 53.1618 431.173 53.1633 431.172 53.1638C431.169 53.1653 431.165 53.1669 428.712 48.0068ZM412.582 95.1708C418.359 109.533 421.144 126.906 414.385 143.566L424.974 147.862C433.248 127.468 429.59 106.833 423.184 90.9064L412.582 95.1708ZM414.385 143.565C412.468 148.289 406.428 156.238 398.768 164.052C391.146 171.828 383.016 178.353 377.644 180.8L382.382 191.199C389.746 187.844 399.084 180.054 406.928 172.052C414.735 164.088 422.16 154.796 424.974 147.863L414.385 143.565Z" fill="black"/>
</svg>
