<svg width="210" height="210" viewBox="0 0 210 210" fill="none" xmlns="http://www.w3.org/2000/svg">
<path d="M132 107.982V165.536C132 170.76 127.679 175 122.352 175H87.6366C82.3149 175 78 170.76 78 165.536V107.982H132Z" fill="#270722" fill-opacity="0.12"/>
<path fill-rule="evenodd" clip-rule="evenodd" d="M132 103.246H78V105.851H132V103.246Z" fill="#270722"/>
<path fill-rule="evenodd" clip-rule="evenodd" d="M101.536 68.1743C99.1516 68.8657 96.7394 69.2204 94.31 69.2204C91.2384 69.2204 88.1262 68.657 85 67.5316V100H124.986V52.137C124.986 52.137 125.119 50.202 124.554 48C120.902 54.0733 113.039 64.7774 101.536 68.1743Z" fill="#C5B5D1"/>
<path fill-rule="evenodd" clip-rule="evenodd" d="M100.584 61.6468C112.49 57.7486 120.497 43.7797 123.278 38.2249C121.112 34.8135 116.489 32.88 106.558 38.8331C90.1655 48.6486 86.0504 57.8046 85.1191 60.6528C90.3999 62.9379 95.5816 63.2817 100.584 61.6468Z" fill="#C5B5D1"/>
</svg>
