<?xml version="1.0" encoding="UTF-8"?>
<svg width="25px" height="24px" viewBox="0 0 25 24" version="1.1" xmlns="http://www.w3.org/2000/svg" xmlns:xlink="http://www.w3.org/1999/xlink">
    <!-- Generator: Sketch 48.2 (47327) - http://www.bohemiancoding.com/sketch -->
    <title>Group 4</title>
    <desc>Created with Sketch.</desc>
    <defs></defs>
    <g id="åresaxen1" stroke="none" stroke-width="1" fill="none" fill-rule="evenodd" transform="translate(-517.000000, -732.000000)">
        <g id="Group-2" transform="translate(226.000000, 729.000000)">
            <g id="Group-4" transform="translate(288.000000, 0.000000)">
                <rect id="Rectangle-3" x="0" y="0" width="30" height="30"></rect>
                <path d="M27.6723496,22.0887746 L21.3520609,17.3915369 C20.9507727,17.0917132 20.5494845,17.1916544 20.2485184,17.4914781 L19.7469082,17.9911843 L18.1417555,19.5902439 C17.6401453,20.0899501 16.8375689,20.0899501 16.2356367,19.5902439 L10.3166361,14.2933588 C10.01567,14.0934764 9.91534798,13.6937114 9.91534798,13.2939465 C9.91534798,12.8941816 10.01567,12.5943579 10.3166361,12.2945342 L11.7211448,10.895357 L12.0221109,10.5955334 C12.323077,10.2957097 12.323077,9.79600353 12.1224329,9.49617985 L7.80858508,3.29982369 C7.70826303,3.19988246 7.50761895,3 7.20665282,3 C7.00600873,3 6.7050426,3 6.50439852,3.19988246 C6.50439852,3.19988246 6.50439852,3.19988246 6.50439852,3.19988246 L3.99634744,5.19870703 C2.99312701,5.99823685 2.79248293,7.29747282 3.1937711,8.49676756 C6.50439852,17.2915957 13.6272636,23.8877167 22.6562474,26.8859536 C23.6594679,27.1857773 24.8633324,26.8859536 25.5655867,26.0864238 C26.0671969,25.4867764 27.2710614,23.987658 27.4717055,23.7877755 C27.5720275,23.6878343 27.6723496,23.4879518 27.7726716,23.3880106 C27.9733157,23.1881281 27.9733157,22.9882457 27.9733157,22.688422 C28.0736378,22.3885983 27.8729937,22.1887159 27.6723496,22.0887746 Z" id="Shape" fill="#000000" fill-rule="nonzero"></path>
            </g>
        </g>
    </g>
</svg>