<?xml version="1.0" encoding="UTF-8"?>
<svg width="15px" height="19px" viewBox="0 0 15 19" version="1.1" xmlns="http://www.w3.org/2000/svg" xmlns:xlink="http://www.w3.org/1999/xlink">
    <!-- Generator: Sketch 46.2 (44496) - http://www.bohemiancoding.com/sketch -->
    <title>pininterest</title>
    <desc>Created with Sketch.</desc>
    <defs></defs>
    <g id="Page-1" stroke="none" stroke-width="1" fill="none" fill-rule="evenodd">
        <g id="åresaxen1" transform="translate(-1536.000000, -3476.000000)" fill="#FFFFFF">
            <g id="footer" transform="translate(0.000000, 3383.000000)">
                <g id="Social" transform="translate(1418.000000, 91.000000)">
                    <g id="pininterest" transform="translate(118.000000, 2.000000)">
                        <path d="M7.95428571,0 C2.66678571,0 0.00107142857,3.70736842 0.00107142857,6.8 C0.00107142857,8.67157895 0.725357143,10.3368421 2.28,10.9578947 C2.535,11.06 2.76321429,10.9610526 2.83714286,10.6852632 C2.88857143,10.4947368 3.01071429,10.0126316 3.06428571,9.81157895 C3.13928571,9.53894737 3.11035714,9.44315789 2.90464286,9.20526316 C2.45571429,8.68842105 2.16964286,8.01894737 2.16964286,7.07052632 C2.16964286,4.32 4.27392857,1.85789474 7.64892857,1.85789474 C10.6371429,1.85789474 12.2785714,3.64421053 12.2785714,6.02842105 C12.2785714,9.16736842 10.8589286,11.8157895 8.75035714,11.8157895 C7.58678571,11.8157895 6.71571429,10.8736842 6.99428571,9.71894737 C7.32964286,8.34105263 7.97678571,6.85263158 7.97678571,5.85684211 C7.97678571,4.96631579 7.48821429,4.22315789 6.47571429,4.22315789 C5.28642857,4.22315789 4.33071429,5.42736842 4.33071429,7.04 C4.33071429,8.06842105 4.68535714,8.76315789 4.68535714,8.76315789 C4.68535714,8.76315789 3.46714286,13.8094737 3.25392857,14.6936842 C2.82857143,16.4536842 3.19071429,18.6115789 3.22071429,18.8305263 C3.23892857,18.9589474 3.40821429,18.9894737 3.48535714,18.8926316 C3.59464286,18.7515789 5.01214286,17.0410526 5.49428571,15.3305263 C5.63035714,14.8463158 6.27642857,12.3389474 6.27642857,12.3389474 C6.66321429,13.06 7.79357143,13.6957895 8.99464286,13.6957895 C12.5721429,13.6957895 14.9989286,10.5052632 14.9989286,6.23578947 C14.9989286,3.00736842 12.2035714,0 7.95428571,0 L7.95428571,0 Z" id="Shape"></path>
                    </g>
                </g>
            </g>
        </g>
    </g>
</svg>