<svg width="210" height="210" viewBox="0 0 210 210" fill="none" xmlns="http://www.w3.org/2000/svg">
<path d="M85.5859 147.346H125.415V169.822C125.415 172.682 123.097 175 120.237 175H90.764C87.9042 175 85.5859 172.682 85.5859 169.822V147.346Z" fill="#E5E1E4"/>
<path fill-rule="evenodd" clip-rule="evenodd" d="M70.3681 38.786C70.1709 36.7571 71.7654 35 73.8039 35H137.196C139.235 35 140.829 36.7571 140.632 38.786L130.047 147.684C129.875 149.453 128.388 150.802 126.611 150.802H84.389C82.6118 150.802 81.125 149.453 80.9531 147.684L70.3681 38.786ZM121.805 134.923C122.844 134.923 123.536 134.232 123.71 133.368L128.558 81.8618C128.731 80.9976 127.866 80.1334 127 79.9605C125.961 79.7877 125.268 80.6519 125.095 81.5161L120.246 133.022C120.073 134.059 120.766 134.923 121.805 134.923ZM124.376 140.778C124.376 142.878 122.67 144.58 120.566 144.58C118.462 144.58 116.756 142.878 116.756 140.778C116.756 138.678 118.462 136.975 120.566 136.975C122.67 136.975 124.376 138.678 124.376 140.778Z" fill="#C5B5D1"/>
</svg>
