<svg width="210" height="210" viewBox="0 0 210 210" fill="none" xmlns="http://www.w3.org/2000/svg">
<path d="M75.9219 110.878V174.678H181.001V110.878H75.9219Z" fill="#E5E1E4"/>
<path fill-rule="evenodd" clip-rule="evenodd" d="M75.9219 110.556H181.001L128.461 149.222L75.9219 110.556Z" fill="#270722" fill-opacity="0.08"/>
<g filter="url(#filter0_d)">
<path fill-rule="evenodd" clip-rule="evenodd" d="M142.634 137.801C142.634 139.517 141.967 141.13 140.761 142.343L129.618 153.553C128.787 154.388 127.435 154.388 126.604 153.553L115.459 142.344C112.969 139.84 112.969 135.765 115.459 133.258C116.665 132.045 118.269 131.376 119.976 131.376C121.682 131.376 123.286 132.045 124.493 133.258L128.111 136.896L131.728 133.258C132.934 132.045 134.539 131.376 136.244 131.376C137.95 131.376 139.554 132.045 140.76 133.258C141.967 134.472 142.634 136.086 142.634 137.801Z" fill="#C5B5D1"/>
</g>
<path d="M30 35.3223V99.1223H135.079V35.3223H30Z" fill="#E5E1E4"/>
<path fill-rule="evenodd" clip-rule="evenodd" d="M30 35H135.079L82.5394 73.6667L30 35Z" fill="#270722" fill-opacity="0.08"/>
<g filter="url(#filter1_d)">
<path fill-rule="evenodd" clip-rule="evenodd" d="M96.7117 62.2454C96.7117 63.9609 96.0453 65.5746 94.8395 66.7875L83.6957 77.9971C82.865 78.8327 81.513 78.8328 80.6822 77.9972L69.5373 66.7888C67.0475 64.2844 67.0475 60.209 69.5373 57.7021C70.7432 56.4892 72.3475 55.8203 74.0544 55.8203C75.76 55.8203 77.3644 56.4892 78.5715 57.7021L82.189 61.3406L85.8066 57.7021C87.0124 56.4892 88.6168 55.8203 90.3224 55.8203C92.028 55.8203 93.6324 56.4892 94.8382 57.7021C96.0453 58.9162 96.7117 60.5299 96.7117 62.2454Z" fill="#270722"/>
</g>
<defs>
<filter id="filter0_d" x="107.592" y="129.376" width="41.0418" height="34.8035" filterUnits="userSpaceOnUse" color-interpolation-filters="sRGB">
<feFlood flood-opacity="0" result="BackgroundImageFix"/>
<feColorMatrix in="SourceAlpha" type="matrix" values="0 0 0 0 0 0 0 0 0 0 0 0 0 0 0 0 0 0 127 0"/>
<feOffset dy="4"/>
<feGaussianBlur stdDeviation="3"/>
<feColorMatrix type="matrix" values="0 0 0 0 0 0 0 0 0 0 0 0 0 0 0 0 0 0 0.1 0"/>
<feBlend mode="normal" in2="BackgroundImageFix" result="effect1_dropShadow"/>
<feBlend mode="normal" in="SourceGraphic" in2="effect1_dropShadow" result="shape"/>
</filter>
<filter id="filter1_d" x="61.6699" y="53.8203" width="41.0418" height="34.8035" filterUnits="userSpaceOnUse" color-interpolation-filters="sRGB">
<feFlood flood-opacity="0" result="BackgroundImageFix"/>
<feColorMatrix in="SourceAlpha" type="matrix" values="0 0 0 0 0 0 0 0 0 0 0 0 0 0 0 0 0 0 127 0"/>
<feOffset dy="4"/>
<feGaussianBlur stdDeviation="3"/>
<feColorMatrix type="matrix" values="0 0 0 0 0 0 0 0 0 0 0 0 0 0 0 0 0 0 0.1 0"/>
<feBlend mode="normal" in2="BackgroundImageFix" result="effect1_dropShadow"/>
<feBlend mode="normal" in="SourceGraphic" in2="effect1_dropShadow" result="shape"/>
</filter>
</defs>
</svg>
